<svg id="_3596121" data-name="3596121" xmlns="http://www.w3.org/2000/svg" width="12" height="12" viewBox="0 0 12 12">
  <g id="Group_3728" data-name="Group 3728">
    <path id="Path_2509" data-name="Path 2509" d="M6.868,12h-5.6A1.263,1.263,0,0,1,0,10.75V1.25A1.263,1.263,0,0,1,1.272,0h5.6A1.263,1.263,0,0,1,8.139,1.25v3a.254.254,0,0,1-.509,0v-3A.758.758,0,0,0,6.868.5h-5.6a.758.758,0,0,0-.763.75v9.5a.758.758,0,0,0,.763.75h5.6a.758.758,0,0,0,.763-.75v-3a.254.254,0,0,1,.509,0v3A1.263,1.263,0,0,1,6.868,12Z"/>
  </g>
  <g id="Group_3729" data-name="Group 3729" transform="translate(3.86 5.746)">
    <path id="Path_2510" data-name="Path 2510" d="M15.885,12.009H8.254a.254.254,0,0,1,0-.509h7.631a.254.254,0,1,1,0,.509Z" transform="translate(-8 -11.5)"/>
  </g>
  <g id="Group_3730" data-name="Group 3730" transform="translate(9.456 3.711)">
    <path id="Path_2511" data-name="Path 2511" d="M19.254,12.079a.254.254,0,0,1-.18-.434L20.929,9.79,19.075,7.935a.254.254,0,1,1,.36-.36L21.469,9.61a.255.255,0,0,1,0,.36L19.434,12A.255.255,0,0,1,19.254,12.079Z" transform="translate(-19 -7.501)"/>
  </g>
</svg>
